<?xml version="1.0" encoding="utf-8"?>
<!-- Generator: Adobe Illustrator 19.1.0, SVG Export Plug-In . SVG Version: 6.00 Build 0)  -->
<!DOCTYPE svg PUBLIC "-//W3C//DTD SVG 1.1//EN" "http://www.w3.org/Graphics/SVG/1.1/DTD/svg11.dtd">
<svg version="1.1" id="Layer_1" xmlns="http://www.w3.org/2000/svg" xmlns:xlink="http://www.w3.org/1999/xlink" x="0px" y="0px"
	 viewBox="0 0 169 156.4" style="enable-background:new 0 0 169 156.4;" xml:space="preserve">
<style type="text/css">
	.st0{fill:#EB7863;}
</style>
<path class="st0" d="M169,10.5L34.1,14.4L29,0H0l6,10.4h8.4l21.7,64.8c-5.1,4.3-8.4,10.8-8.4,18c0,13.1,10.6,23.7,23.7,23.7H169V99
	H51.5c-3.2,0-5.8-2.6-5.8-5.8c0-2.4,1.5-4.5,3.7-5.4l0,0L169,63.1V10.5z"/>
<path class="st0" d="M82,138.9c0,9.7-7.8,17.5-17.5,17.5c-9.7,0-17.5-7.8-17.5-17.5c0-9.7,7.8-17.5,17.5-17.5
	C74.1,121.4,82,129.3,82,138.9"/>
<path class="st0" d="M169,138.9c0,9.7-7.8,17.5-17.5,17.5c-9.7,0-17.5-7.8-17.5-17.5c0-9.7,7.8-17.5,17.5-17.5
	C161.2,121.4,169,129.3,169,138.9"/>
</svg>
